<svg width="19" height="23" viewBox="0 0 19 23" fill="none" xmlns="http://www.w3.org/2000/svg">
<path d="M18.7914 11.0994C18.7914 4.64088 14.7887 0.928175 9.53867 0.928175C4.26934 0.928175 0.29558 4.64088 0.29558 11.0994C0.29558 17.5387 4.26934 21.2707 9.53867 21.2707C10.7859 21.2707 11.9558 21.058 13.0193 20.6616L14.6146 22.634H18.4724L15.6492 19.076C17.5925 17.3453 18.7914 14.6285 18.7914 11.0994ZM4.46271 11.0994C4.46271 6.87431 6.48343 4.5732 9.53867 4.5732C12.6036 4.5732 14.6243 6.87431 14.6243 11.0994C14.6243 13.2845 14.0829 14.9572 13.1354 16.0691L11.6367 14.145H8.1174L10.6796 17.5097C10.3218 17.587 9.93508 17.6257 9.53867 17.6257C6.48343 17.6257 4.46271 15.3246 4.46271 11.0994Z" fill="#2A5CAA"/>
</svg>
