<svg width="29" height="28" viewBox="0 0 29 28" fill="none" xmlns="http://www.w3.org/2000/svg">
<path d="M18.9163 9.33256C18.9163 8.09534 18.4242 6.90826 17.5493 6.03347C16.6743 5.15868 15.4872 4.66638 14.2502 4.66638C13.0131 4.66638 11.8259 5.15853 10.9511 6.03347C10.0763 6.9084 9.58398 8.09549 9.58398 9.33256C9.58398 10.5696 10.0761 11.7569 10.9511 12.6316C11.826 13.5064 13.0131 13.9987 14.2502 13.9987C15.4872 13.9987 16.6745 13.5066 17.5493 12.6316C18.424 11.7567 18.9163 10.5696 18.9163 9.33256ZM11.9169 9.33256C11.9169 8.38926 12.4853 7.53827 13.3569 7.17713C14.2295 6.81598 15.232 7.01535 15.8996 7.68296C16.5673 8.35056 16.7666 9.35309 16.4055 10.2258C16.0443 11.0973 15.1933 11.6657 14.25 11.6657C12.9616 11.6657 11.9169 10.621 11.9169 9.33256Z" fill="#8C56FF"/>
<path d="M3.82368 17.0909L0.323934 26.4235C0.189503 26.7813 0.240769 27.1823 0.458365 27.4967C0.677099 27.8111 1.03483 27.998 1.41762 27.998H27.0824C27.4652 27.998 27.8229 27.8112 28.0416 27.4967C28.2592 27.1823 28.3105 26.7813 28.1761 26.4235L24.6763 17.0909C24.5054 16.6341 24.0703 16.3322 23.5827 16.3322H21.6494C22.9025 14.212 23.5701 11.7956 23.5827 9.33267C23.5827 5.998 21.8043 2.91765 18.9163 1.2509C16.0284 -0.416965 12.4716 -0.416965 9.58369 1.2509C6.69573 2.91759 4.91737 5.998 4.91737 9.33267C5.03585 11.7855 5.71257 14.1789 6.89507 16.3322H4.91737C4.42977 16.3322 3.99455 16.6341 3.82368 17.0909ZM14.25 2.33307C16.1058 2.33307 17.8865 3.07015 19.1989 4.38369C20.5125 5.69609 21.2495 7.47658 21.2495 9.33261C21.2495 15.5097 15.9827 19.6017 14.2296 20.7946C7.37597 16.5007 7.25056 9.62426 7.25056 9.33261C7.25056 7.47679 7.98764 5.69609 9.30118 4.38369C10.6136 3.07015 12.394 2.33307 14.25 2.33307ZM8.41709 18.6652C9.85254 20.5005 11.6366 22.034 13.6667 23.1767C14.0278 23.3851 14.4721 23.3851 14.8333 23.1767C16.8042 21.9725 18.5608 20.447 20.0304 18.6652C20.0475 18.6663 20.0657 18.6663 20.0828 18.6652H22.7748L25.3996 25.6647H3.10016L5.72497 18.6652H8.41709Z" fill="#8C56FF"/>
</svg>
