<svg width="18" height="17" viewBox="0 0 18 17" fill="none" xmlns="http://www.w3.org/2000/svg">
<path d="M17.4377 1.53432H14.1649V0.562515C14.1649 0.251662 13.9132 0 13.6023 0C13.2915 0 13.0398 0.251643 13.0398 0.562515V1.53432H11.0969V0.562515C11.0969 0.251662 10.8453 0 10.5344 0C10.2236 0 9.97191 0.251643 9.97191 0.562515V1.53432H8.02827V0.562515C8.02827 0.251662 7.77663 0 7.46576 0C7.15489 0 6.90324 0.251643 6.90324 0.562515V1.53432H4.96036V0.562515C4.96036 0.251662 4.70872 0 4.39784 0C4.08699 0 3.83533 0.251643 3.83533 0.562515V1.53432H0.562515C0.251662 1.53432 0 1.78596 0 2.09683V14.3697C0 15.5258 0.940709 16.4665 2.09674 16.4665H15.904C17.0594 16.4665 18 15.5258 18 14.3697V2.09683C18 1.78598 17.7485 1.53432 17.4377 1.53432ZM16.8752 14.3698C16.8752 14.9056 16.4392 15.3416 15.9034 15.3416H2.09683C1.56098 15.3416 1.12503 14.9056 1.12503 14.3698V7.26141H16.8752L16.8752 14.3698ZM16.8752 6.13649H1.12499V2.65923H3.83544V3.63104C3.83544 3.94189 4.08709 4.19355 4.39796 4.19355C4.70881 4.19355 4.96047 3.94191 4.96047 3.63104V2.65923H6.90336V3.63104C6.90336 3.94189 7.155 4.19355 7.46587 4.19355C7.77674 4.19355 8.02839 3.94191 8.02839 3.63104V2.65923H9.97127V3.63104C9.97127 3.94189 10.2229 4.19355 10.5338 4.19355C10.8447 4.19355 11.0963 3.94191 11.0963 3.63104V2.65923H13.0392V3.63104C13.0392 3.94189 13.2908 4.19355 13.6017 4.19355C13.9126 4.19355 14.1642 3.94191 14.1642 3.63104V2.65923H16.8754L16.8752 6.13649Z" fill="#2A5CAA"/>
</svg>
