<svg width="30" height="29" viewBox="0 0 30 29" fill="none" xmlns="http://www.w3.org/2000/svg">
<path d="M29.2906 12.3552L28.0569 10.619C27.9112 10.4161 27.8104 10.1614 27.7709 9.90675C26.9362 4.29485 21.9603 0.0369525 16.1975 0C12.5493 0.005447 9.15314 1.62866 6.90497 4.40676H2.97092L1.25919 1.72003C0.936452 1.21211 0.259657 1.06231 -0.245546 1.3864C-0.752109 1.70914 -0.901906 2.38321 -0.579175 2.89114L1.45255 6.0817C1.65273 6.39491 1.99997 6.58555 2.37172 6.58555H11.7312C11.3335 7.14388 11.0421 7.77845 10.8923 8.47019H0.339965C-0.261941 8.47019 -0.749435 8.95769 -0.749435 9.55959C-0.749435 10.1615 -0.261941 10.649 0.339965 10.649H10.8923C10.8964 10.6653 10.9032 10.6803 10.9073 10.6967C11.0598 11.3694 11.3431 11.9889 11.7312 12.5336H2.37175C1.99999 12.5336 1.65274 12.7243 1.45257 13.0375L-0.579151 16.2294C-0.903248 16.7373 -0.752092 17.41 -0.245522 17.7341C-0.0644098 17.8499 0.138504 17.9044 0.338675 17.9044C0.69816 17.9044 1.05088 17.726 1.25921 17.4005L2.96955 14.7138H4.75753C5.3608 16.815 6.57273 18.7406 8.22862 20.2016C8.36479 20.3241 8.51595 20.4413 8.66166 20.5584C9.00346 20.8362 9.36432 21.1071 9.78101 21.3754C10.3094 21.7009 10.6253 22.2619 10.6253 22.8774V27.4965C10.6253 28.0984 11.1128 28.5859 11.7147 28.5859C12.3166 28.5859 12.8041 28.0984 12.8041 27.4965V22.8774C12.8041 21.5007 12.1014 20.2452 10.944 19.5316C10.4687 19.2252 10.0575 18.9147 9.68026 18.5743C8.48872 17.5217 7.58589 16.1803 7.05343 14.7124H15.9252C18.7671 14.7124 21.0779 12.4002 21.0779 9.55963C21.0766 6.71903 18.7643 4.40685 15.9238 4.40685H9.93467C11.6682 2.97564 13.8809 2.16404 16.1852 2.17903C20.8834 2.20763 24.9384 5.66791 25.6182 10.2312C25.7094 10.8317 25.9423 11.405 26.2855 11.8844L27.5138 13.611C27.6173 13.7595 27.5887 13.9515 27.4525 14.0577L25.7639 15.3432C25.4929 15.5502 25.3336 15.8702 25.3336 16.2106V20.6554C25.3336 20.8515 25.1661 21.004 24.9523 21.004H22.2179C21.6159 21.004 21.1285 21.4915 21.1285 22.0934V27.4968C21.1285 28.0987 21.6159 28.5862 22.2179 28.5862C22.8198 28.5862 23.3073 28.0987 23.3073 27.4968V23.1828H24.9523C26.3644 23.1828 27.5124 22.0484 27.5124 20.6554V16.7499L28.7747 15.7885C29.8396 14.9687 30.0684 13.4626 29.2908 12.3555L29.2906 12.3552ZM15.9236 12.5336C14.2841 12.5336 12.9496 11.1991 12.9496 9.55954C12.9496 7.92 14.2841 6.58549 15.9236 6.58549C17.5645 6.58549 18.8976 7.92 18.8976 9.55954C18.8976 11.2004 17.5631 12.5336 15.9236 12.5336Z" fill="#FA6B7C"/>
<path d="M15.9442 8.47031H15.9333C15.3328 8.47031 14.8494 8.9578 14.8494 9.55971C14.8494 10.1616 15.3423 10.6491 15.9442 10.6491C16.5461 10.6491 17.0336 10.1616 17.0336 9.55971C17.0336 8.9578 16.5475 8.47031 15.9442 8.47031Z" fill="#FA6B7C"/>
</svg>
