<svg width="20" height="20" viewBox="0 0 20 20" fill="none" xmlns="http://www.w3.org/2000/svg">
<path d="M10.8095 10.8095C10.8095 11.8892 9.18994 11.8892 9.18994 10.8095C9.18994 9.72984 10.8095 9.72984 10.8095 10.8095Z" fill="#2A5CAA"/>
<path d="M9.94241 3.73836C9.00881 3.73836 8.18147 4.26492 7.83461 5.07976C7.70648 5.38132 7.84633 5.73054 8.14867 5.85866C8.45023 5.98679 8.79867 5.84694 8.92757 5.5446C9.08538 5.17428 9.49319 4.92584 9.94319 4.92584C10.5401 4.92584 11.026 5.35162 11.026 5.87428C11.026 6.03053 10.8291 6.19928 10.5049 6.45944C10.0174 6.84928 9.34945 7.38366 9.34945 8.38054C9.34945 8.70866 9.61507 8.9743 9.94321 8.9743C10.2713 8.9743 10.537 8.70868 10.537 8.38054C10.537 7.97508 10.8065 7.73836 11.2471 7.38678C11.6776 7.04224 12.2143 6.61334 12.2143 5.87428C12.2135 4.69694 11.1947 3.73836 9.94241 3.73836Z" fill="#2A5CAA"/>
<path d="M15.668 0.500122H4.332C2.2196 0.500122 0.5 2.21966 0.5 4.33212V10.8095C0.5 12.7205 1.90624 14.3095 3.7382 14.5963V18.9065C3.7382 19.1464 3.88273 19.3628 4.1046 19.455C4.17882 19.4854 4.25538 19.5003 4.33194 19.5003C4.48663 19.5003 4.63818 19.4401 4.75148 19.3261L9.43588 14.6417H15.6671C17.7803 14.6424 19.4999 12.9229 19.4999 10.8097V4.33226C19.4999 2.21986 17.7805 0.500122 15.668 0.500122ZM18.3126 10.8095C18.3126 12.2681 17.1259 13.4541 15.668 13.4541L9.1906 13.4549C9.03279 13.4549 8.882 13.5174 8.77106 13.6291L4.92566 17.4729V14.0487C4.92566 13.7206 4.66004 13.455 4.3319 13.455C2.8733 13.455 1.6873 12.2682 1.6873 10.8104V4.33216C1.6873 2.87356 2.87402 1.68756 4.3319 1.68756H15.6671C17.1257 1.68756 18.3117 2.87428 18.3117 4.33216L18.3126 10.8095Z" fill="#2A5CAA"/>
</svg>
