<svg width="18" height="15" viewBox="0 0 18 15" fill="none" xmlns="http://www.w3.org/2000/svg">
<path d="M15.9035 4.60219H14.9013C14.6201 2.01755 12.4249 0 9.76691 0H8.23258C5.5748 0 3.37952 2.0183 3.09815 4.60219H2.09599C0.940618 4.60219 0 5.54291 0 6.69894V9.76676C0 10.9229 0.940713 11.8635 2.09675 11.8635H3.11223C3.38312 13.5991 4.88857 14.9321 6.69977 14.9321L9.00021 14.9313C9.31106 14.9313 9.56273 14.6797 9.56273 14.3688C9.56273 14.0579 9.31108 13.8063 9.00021 13.8063H6.69902C5.31716 13.8063 4.19281 12.682 4.19281 11.3001V5.16427C4.19281 2.93641 6.00468 1.12464 8.23245 1.12464H9.76677C11.9946 1.12464 13.8064 2.93651 13.8064 5.16427V11.3008C13.8064 11.6117 14.0581 11.8634 14.3689 11.8634H15.9033C17.0594 11.8634 18 10.9227 18 9.76662V6.69881C18 5.5427 17.0593 4.60206 15.9033 4.60206L15.9035 4.60219ZM3.06798 10.7388H2.09618C1.56032 10.7388 1.12437 10.3028 1.12437 9.76696L1.12511 6.69915C1.12511 6.16329 1.56106 5.72734 2.09692 5.72734H3.06872L3.06798 10.7388ZM16.8753 9.76696C16.8753 10.3028 16.4394 10.7388 15.9035 10.7388H14.9317L14.9325 5.72731H15.9043C16.4401 5.72731 16.8761 6.16325 16.8761 6.69911L16.8753 9.76696Z" fill="#2A5CAA"/>
</svg>
