<svg width="24" height="18" viewBox="0 0 24 18" fill="none" xmlns="http://www.w3.org/2000/svg">
<path d="M1.80005 0C0.971539 0 0.300049 0.67149 0.300049 1.5C0.300049 2.32851 0.971539 3 1.80005 3H22.2C23.0286 3 23.7 2.32851 23.7 1.5C23.7 0.67149 23.0286 0 22.2 0H1.80005ZM1.80005 7.5C0.971539 7.5 0.300049 8.17149 0.300049 9C0.300049 9.82851 0.971539 10.5 1.80005 10.5H22.2C23.0286 10.5 23.7 9.82851 23.7 9C23.7 8.17149 23.0286 7.5 22.2 7.5H1.80005ZM1.80005 15C0.971539 15 0.300049 15.6715 0.300049 16.5C0.300049 17.3285 0.971539 18 1.80005 18H22.2C23.0286 18 23.7 17.3285 23.7 16.5C23.7 15.6715 23.0286 15 22.2 15H1.80005Z" fill="white"/>
</svg>
