<svg width="20" height="16" viewBox="0 0 20 16" fill="none" xmlns="http://www.w3.org/2000/svg">
<path d="M12.4288 0.119751H7.571C3.6718 0.119751 0.5 3.29155 0.5 7.19075C0.5 7.51887 0.76562 7.78451 1.09376 7.78451H2.85L2.12344 13.5947C2.12032 13.6189 2.11875 13.6439 2.11875 13.6681C2.11875 14.8885 3.11171 15.8814 4.33195 15.8814H15.6672C16.8875 15.8814 17.8804 14.8884 17.8804 13.6681C17.8804 13.6432 17.8788 13.6189 17.8757 13.5947L17.1491 7.78451H18.9061C19.2343 7.78451 19.4999 7.51889 19.4999 7.19075C19.4999 3.29155 16.328 0.119751 12.4288 0.119751ZM15.6678 14.6932H4.3318C3.77712 14.6932 3.32398 14.251 3.3068 13.7002L4.04664 7.78379H5.95132C6.27944 7.78379 6.54508 7.51817 6.54508 7.19003V5.57049C6.54508 5.00487 7.00524 4.54471 7.57086 4.54471H12.4287C12.9943 4.54471 13.4544 5.00487 13.4544 5.57049V7.19003C13.4544 7.51815 13.7201 7.78379 14.0482 7.78379H15.9529L16.6919 13.7002C16.6748 14.251 16.2217 14.6932 15.6678 14.6932ZM14.642 6.59715V5.57137C14.642 4.35105 13.6491 3.35817 12.4288 3.35817H7.57102C6.3507 3.35817 5.35782 4.35113 5.35782 5.57137V6.59715H1.71722C2.01566 3.63075 4.52742 1.30735 7.57122 1.30735H12.429C15.4728 1.30735 17.9844 3.63075 18.283 6.59715H14.642Z" fill="#2A5CAA"/>
<path d="M9.99965 7.00171C8.33325 7.00171 6.97705 8.35795 6.97705 10.0243C6.97705 11.6907 8.33329 13.0469 9.99965 13.0469C11.666 13.0469 13.0223 11.6907 13.0223 10.0243C13.0223 8.35713 11.666 7.00171 9.99965 7.00171ZM9.99965 11.8595C8.98793 11.8595 8.16449 11.0361 8.16449 10.0243C8.16449 9.01263 8.98793 8.18919 9.99965 8.18919C11.0114 8.18919 11.8348 9.01263 11.8348 10.0243C11.8348 11.0361 11.0114 11.8595 9.99965 11.8595Z" fill="#2A5CAA"/>
</svg>
