<svg width="20" height="20" viewBox="0 0 20 20" fill="none" xmlns="http://www.w3.org/2000/svg">
<path d="M10 0.500122C4.7618 0.500122 0.5 4.76192 0.5 10.0001C0.5 15.2383 4.7618 19.5001 10 19.5001C15.2382 19.5001 19.5 15.2383 19.5 10.0001C19.5 4.76192 15.2382 0.500122 10 0.500122ZM10 18.3125C5.4164 18.3125 1.6876 14.5835 1.6876 10.0001C1.6876 5.41672 5.4166 1.68772 10 1.68772C14.5834 1.68772 18.3124 5.41672 18.3124 10.0001C18.3124 14.5835 14.5834 18.3125 10 18.3125Z" fill="#2A5CAA"/>
<path d="M10.5938 9.80174V5.14234C10.5938 4.81422 10.3281 4.54858 10 4.54858C9.67187 4.54858 9.40625 4.8142 9.40625 5.14234V10.0001C9.40625 10.1291 9.44844 10.2548 9.52578 10.3572L12.3594 14.1174C12.4758 14.2721 12.6539 14.3541 12.8336 14.3541C12.9578 14.3541 13.0836 14.315 13.1906 14.2346C13.4524 14.0369 13.5047 13.665 13.307 13.4033L10.5938 9.80174Z" fill="#2A5CAA"/>
</svg>
