<svg width="50" height="50" viewBox="0 0 50 50" fill="none" xmlns="http://www.w3.org/2000/svg">
<path d="M49.9989 24.8675C49.9989 38.6253 38.8067 49.8197 25.0467 49.8197C17.9327 49.8197 11.1343 46.7571 6.39181 41.4194L6.4634 41.3434C10.8861 44.8377 16.2037 46.6855 21.8413 46.6855C35.5413 46.6855 46.6887 35.538 46.6887 21.8381C46.6887 15.7647 44.4628 9.91237 40.4229 5.36005L40.4945 5.28399C46.5346 10.0601 50 17.1988 50 24.8672L49.9989 24.8675ZM0 21.8385C0 9.79647 9.79589 0 21.8385 0C33.8804 0 43.6769 9.79589 43.6769 21.8385C43.6791 33.8804 33.881 43.6769 21.8407 43.6769C9.79876 43.6769 0 33.881 0 21.8385ZM14.5882 16.644C14.5882 17.4739 15.2638 18.1495 16.0937 18.1495C16.9237 18.1495 17.5993 17.4739 17.5993 16.644C17.5993 14.3062 19.503 12.4025 21.8407 12.4025C24.1785 12.4025 26.0822 14.3062 26.0822 16.644C26.0822 19.5119 25.0822 20.0868 23.5678 20.9615C21.919 21.91 19.6641 23.2098 19.6641 27.5475C19.6641 28.3774 20.3397 29.0531 21.1696 29.0531C21.9996 29.0531 22.6752 28.3774 22.6752 27.5475C22.6752 24.9502 23.5767 24.429 25.0711 23.57C26.769 22.5924 29.0933 21.2524 29.0933 16.6461C29.0933 12.6485 25.8406 9.39587 21.8407 9.39587C17.8408 9.39363 14.5882 12.6465 14.5882 16.644ZM19.5634 32.7801C19.5634 33.6101 20.239 34.2834 21.069 34.2834C21.8989 34.2834 22.5745 33.6078 22.5745 32.7801V32.1963C22.5745 31.3663 21.8989 30.6907 21.069 30.6907C20.239 30.6907 19.5634 31.3663 19.5634 32.1963V32.7801Z" fill="url(#paint0_linear_482_7077)"/>
<defs>
<linearGradient id="paint0_linear_482_7077" x1="25" y1="0" x2="25" y2="49.8197" gradientUnits="userSpaceOnUse">
<stop stop-color="#2A5CAA"/>
<stop offset="1" stop-color="#54D8F6"/>
</linearGradient>
</defs>
</svg>
