<svg width="40" height="40" viewBox="0 0 40 40" fill="none" xmlns="http://www.w3.org/2000/svg">
<circle cx="20" cy="20" r="20" fill="#3D3F4C"/>
<path d="M27.1918 12H11.8097C10.258 12 9 13.2271 9 14.7407V23.646C9 25.1596 10.258 26.3867 11.8097 26.3867H17.2422L19.0906 30.6339C19.0906 30.6339 19.2181 31.0014 19.5252 31.0014C19.8338 31.0014 19.9599 30.6339 19.9599 30.6339L21.8083 26.3867H27.1918C28.7435 26.3867 30.0015 25.1596 30.0015 23.646V14.7407C30.0015 13.2271 28.7435 12 27.1918 12Z" stroke="black" stroke-width="1.5"/>
<path d="M15.9457 15.6177V16.826C15.9457 16.826 16.5391 16.9562 16.5391 17.4222V20.8488H17.7689V17.3874C17.7689 17.3874 17.9113 15.6958 15.9457 15.6177Z" fill="black"/>
<path d="M26.1757 17.3266V17.6971C25.7693 17.1616 25.1047 17.2311 25.1047 17.2311C23.4239 17.3527 23.3883 18.8619 23.3883 18.8619V19.4147C23.3883 20.8719 24.9192 20.979 24.9192 20.979C25.9992 20.979 26.149 20.5102 26.149 20.5102C26.1579 21.6664 25.388 21.5983 25.388 21.5983H25.0513V22.7372H25.6091C27.4411 22.7372 27.4233 20.979 27.4233 20.979V17.3266H26.1757ZM25.4666 19.8705C25.0468 19.8705 24.7056 19.5377 24.7056 19.1282C24.7056 18.7187 25.0468 18.3859 25.4666 18.3859C25.8865 18.3859 26.2277 18.7187 26.2277 19.1282C26.2277 19.5377 25.8865 19.8705 25.4666 19.8705Z" fill="black"/>
<path d="M13.9282 17.2312C13.9282 17.2312 13.0737 17.2225 12.7785 17.7145V15.7812C12.7785 15.7812 11.5991 15.7957 11.522 15.7841V20.8388H12.7785V20.545C12.7785 20.545 13.1553 20.9762 13.8228 20.9762C13.8228 20.9762 15.5481 20.9299 15.557 19.302C15.557 19.302 15.7899 17.3991 13.9296 17.2298L13.9282 17.2312ZM13.5425 19.8533C13.1434 19.8533 12.82 19.5378 12.82 19.1471C12.82 18.7564 13.1434 18.4424 13.5425 18.4424C13.9415 18.4424 14.2664 18.7579 14.2664 19.1471C14.2664 19.5364 13.943 19.8533 13.5425 19.8533Z" fill="black"/>
<path d="M20.6853 17.2775C19.546 17.2775 18.6233 18.1066 18.6233 19.1283C18.6233 20.1499 19.546 20.9791 20.6853 20.9791C21.8246 20.9791 22.7473 20.1499 22.7473 19.1283C22.7473 18.1066 21.8246 17.2775 20.6853 17.2775ZM20.6853 19.888C20.2551 19.888 19.9065 19.5479 19.9065 19.1283C19.9065 18.7086 20.2551 18.3686 20.6853 18.3686C21.1155 18.3686 21.4641 18.7086 21.4641 19.1283C21.4641 19.5479 21.1155 19.888 20.6853 19.888Z" fill="black"/>
</svg>
