<svg width="23" height="28" viewBox="0 0 23 28" fill="none" xmlns="http://www.w3.org/2000/svg">
<path fill-rule="evenodd" clip-rule="evenodd" d="M15.7928 12.2077L10.94 20.6125C10.7466 20.9488 10.633 21.325 10.6107 21.7129C10.5779 22.2426 10.5076 23.4039 10.4431 24.502C10.3857 25.4477 10.8673 26.3442 11.6876 26.8176C12.5079 27.2911 13.5251 27.2606 14.315 26.7391C15.2337 26.1309 16.2052 25.491 16.6482 25.1993C16.9716 24.9848 17.2411 24.6989 17.4357 24.3625L22.2873 15.9577C22.9775 14.7612 22.5685 13.232 21.3732 12.5428L19.2075 11.2924C18.0111 10.6022 16.4831 11.0112 15.7928 12.2077ZM19.9997 7.9762V4.2496C19.9997 2.17891 18.3216 0.499603 16.2497 0.499603H3.75049C2.75557 0.499603 1.80166 0.894523 1.09855 1.59883C0.395408 2.30077 0.000488281 3.25468 0.000488281 4.2496V21.7504C0.000488281 23.8211 1.67863 25.5004 3.75049 25.5004H7.42549C8.11456 25.5004 8.67472 24.9402 8.67472 24.25C8.67472 23.5598 8.11456 22.9996 7.42549 22.9996H3.75049C3.06025 22.9996 2.50009 22.4394 2.50009 21.7504V4.24957C2.50009 3.91909 2.63134 3.60034 2.8669 3.36598C3.1001 3.13161 3.41884 3.00034 3.75049 3.00034H16.2497C16.9399 3.00034 17.5001 3.5605 17.5001 4.24957V7.97617C17.5001 8.66641 18.0602 9.22657 18.7505 9.22657C19.4396 9.22657 19.9997 8.66644 19.9997 7.9762ZM17.9571 13.4572L20.1227 14.7076L15.2699 23.1124L12.9379 24.6522L13.1055 21.8632L17.9571 13.4572ZM6.25021 19.2499H8.96896C9.6592 19.2499 10.2194 18.6897 10.2194 18.0007C10.2194 17.3104 9.6592 16.7503 8.96896 16.7503H6.25021C5.55997 16.7503 4.99981 17.3104 4.99981 18.0007C4.99981 18.6897 5.55997 19.2499 6.25021 19.2499ZM6.25021 14.2507H11.6877C12.3779 14.2507 12.9381 13.6905 12.9381 13.0003C12.9381 12.3101 12.3779 11.7499 11.6877 11.7499H6.25021C5.55997 11.7499 4.99981 12.3101 4.99981 13.0003C4.99981 13.6905 5.55997 14.2507 6.25021 14.2507ZM6.25021 9.2503H13.7502C14.4404 9.2503 15.0006 8.69014 15.0006 7.9999C15.0006 7.31083 14.4404 6.75067 13.7502 6.75067H6.25021C5.55997 6.75067 4.99981 7.31083 4.99981 7.9999C4.99981 8.69014 5.55997 9.2503 6.25021 9.2503Z" fill="#F37021"/>
</svg>
