<svg width="50" height="44" viewBox="0 0 50 44" fill="none" xmlns="http://www.w3.org/2000/svg">
<path d="M50 3.46981V34.7646C50 36.4182 48.7072 37.7643 47.1165 37.7643L23.2419 37.7667L14.4774 43.2795C14.2256 43.4393 13.9327 43.524 13.6324 43.524C13.3661 43.524 13.0998 43.4562 12.8649 43.3255C12.3589 43.0471 12.0466 42.5144 12.0466 41.9382V39.6745L19.5716 34.9413H46.8377V0.472554H47.1137C48.7043 0.472554 50 1.81867 50 3.46981ZM0.816024 34.9945C0.929813 36.5489 2.19123 37.7667 3.68984 37.7667H7.45944V34.9389H0.81088L0.816024 34.9945ZM11.241 35.7136V32.6413C11.241 31.823 10.5752 31.1596 9.75932 31.1596L0 31.1572V0H43.0567V31.1572H18.9088C18.6303 31.1572 18.3568 31.2347 18.1195 31.3848L11.241 35.7136ZM30.7962 17.2096H36.0693C36.8876 17.2096 37.551 16.5438 37.551 15.7279C37.551 14.9096 36.8852 14.2462 36.0693 14.2462H30.7962C29.9779 14.2462 29.3145 14.912 29.3145 15.7279C29.3145 16.5438 29.9803 17.2096 30.7962 17.2096ZM36.0693 21.9162H14.5456C13.7273 21.9162 13.064 22.582 13.064 23.3979C13.064 24.2162 13.7297 24.8796 14.5456 24.8796H36.0693C36.8876 24.8796 37.551 24.2138 37.551 23.3979C37.551 22.5796 36.8876 21.9162 36.0693 21.9162ZM5.5059 23.3979C5.5059 23.7949 5.66085 24.1654 5.93928 24.4462C6.2177 24.7246 6.59056 24.8796 6.98518 24.8796H6.9876H9.68713C10.5054 24.8796 11.1688 24.2138 11.1688 23.3979C11.1688 22.5796 10.503 21.9162 9.68713 21.9162H6.9876C6.1717 21.9162 5.5059 22.5796 5.5059 23.3979ZM6.98759 17.2096H26.2013C27.0196 17.2096 27.683 16.5438 27.683 15.7279C27.683 14.9096 27.0172 14.2462 26.2013 14.2462H6.98759C6.16927 14.2462 5.5059 14.912 5.5059 15.7279C5.5059 16.5438 6.17169 17.2096 6.98759 17.2096ZM27.5109 8.05767C27.5109 7.23935 26.8451 6.57599 26.0292 6.57599H6.98722C6.1689 6.57599 5.50553 7.24177 5.50553 8.05767C5.50553 8.45473 5.66048 8.82517 5.93891 9.106C6.21733 9.38442 6.59019 9.53937 6.98481 9.53937H6.98723H26.0268C26.8451 9.53937 27.5109 8.87357 27.5109 8.05767Z" fill="url(#paint0_linear_482_7081)"/>
<defs>
<linearGradient id="paint0_linear_482_7081" x1="25" y1="0" x2="25" y2="43.524" gradientUnits="userSpaceOnUse">
<stop stop-color="#2A5CAA"/>
<stop offset="1" stop-color="#54D8F6"/>
</linearGradient>
</defs>
</svg>
