<svg width="18" height="15" viewBox="0 0 18 15" fill="none" xmlns="http://www.w3.org/2000/svg">
<path d="M15.1365 9.00009C15.1365 10.023 13.6021 10.023 13.6021 9.00009C13.6021 7.97722 15.1365 7.97722 15.1365 9.00009Z" fill="#2A5CAA"/>
<path d="M15.9033 0H2.09674C0.940633 0 0 0.93997 0 2.09598V12.8347C0 13.9908 0.940709 14.9314 2.09674 14.9314H15.904C17.0594 14.9314 18 13.9915 18 12.8355V2.09598C18 0.939875 17.0593 0 15.9033 0ZM16.8751 12.8355C16.8751 13.3713 16.4391 13.8073 15.9033 13.8073L2.09674 13.8065C1.56088 13.8065 1.12494 13.3706 1.12494 12.8347V3.95381C1.41582 4.10628 1.7459 4.19287 2.09674 4.19287H15.904C16.4399 4.19287 16.8758 4.62881 16.8758 5.16467L16.8751 12.8355ZM16.8751 3.30692C16.5842 3.15445 16.2541 3.06786 15.9033 3.06786H2.09674C1.56088 3.06786 1.12494 2.63191 1.12494 2.09606C1.12494 1.5602 1.56088 1.12425 2.09674 1.12425H15.904C16.4399 1.12425 16.8758 1.5602 16.8758 2.09606L16.8751 3.30692Z" fill="#2A5CAA"/>
</svg>
