<svg width="20" height="16" viewBox="0 0 20 16" fill="none" xmlns="http://www.w3.org/2000/svg">
<path d="M17.2866 0.119751H2.7132C1.49288 0.119751 0.5 1.11193 0.5 2.33215V13.6674C0.5 14.8877 1.49296 15.8806 2.7132 15.8806H17.2874C18.5069 15.8806 19.4998 14.8884 19.4998 13.6682V2.33215C19.4998 1.11183 18.5068 0.119751 17.2866 0.119751ZM2.7132 1.30725H17.2874C17.7577 1.30725 18.1546 1.62521 18.2757 2.05803L9.99988 8.07603L1.72488 2.05723C1.84519 1.62519 2.24288 1.30725 2.7132 1.30725ZM18.3124 13.6683C18.3124 14.2339 17.8522 14.694 17.2866 14.694L2.71322 14.6933C2.1476 14.6933 1.68744 14.2331 1.68744 13.6675V3.49867L9.65064 9.29007C9.75455 9.36585 9.8772 9.40335 9.99986 9.40335C10.1225 9.40335 10.2452 9.36585 10.3491 9.29007L18.3123 3.49867L18.3124 13.6683Z" fill="#2A5CAA"/>
</svg>
