<svg width="14" height="14" viewBox="0 0 14 14" fill="none" xmlns="http://www.w3.org/2000/svg">
<path d="M13.2 2.99998C13.2 1.6742 12.1258 0.599976 10.8 0.599976H3.19999C1.87421 0.599976 0.799988 1.6742 0.799988 2.99998V9.19998C0.799988 10.5258 1.87421 11.6 3.19999 11.6H4.35781L5.39999 12.6922C5.62343 12.932 5.89687 13.1203 6.19999 13.2437C7.01561 13.5687 7.94687 13.3765 8.56799 12.7562L9.73205 11.6H10.8C12.1258 11.6 13.2 10.5258 13.2 9.19998L13.2 2.99998ZM11.6 9.19998C11.6 9.41248 11.5156 9.6156 11.3656 9.7656C11.2156 9.9156 11.0125 9.99998 10.8 9.99998H9.73203C9.30781 9.99998 8.89999 10.1679 8.59999 10.4679L7.42811 11.6398C7.31951 11.75 7.17187 11.8125 7.01717 11.8125C6.86248 11.8125 6.71405 11.75 6.60623 11.6398L5.51405 10.5C5.21327 10.182 4.79529 10.0015 4.35781 9.99998H3.19999C2.75781 9.99998 2.39999 9.64216 2.39999 9.19998V2.99998C2.39999 2.5578 2.75781 2.19998 3.19999 2.19998H10.8C11.0125 2.19998 11.2156 2.28435 11.3656 2.43436C11.5156 2.58436 11.6 2.78748 11.6 2.99998V9.19998Z" fill="#F37021"/>
<path d="M7.80001 8.59997C7.80001 9.66637 6.20001 9.66637 6.20001 8.59997C6.20001 7.53357 7.80001 7.53357 7.80001 8.59997Z" fill="#F37021"/>
<path d="M7.00001 3.40002C6.55783 3.40002 6.20001 3.75784 6.20001 4.20002V6.00002C6.20001 6.4422 6.55783 6.80002 7.00001 6.80002C7.44219 6.80002 7.80001 6.4422 7.80001 6.00002V4.20002C7.80001 3.98752 7.71564 3.7844 7.56563 3.6344C7.41563 3.4844 7.21251 3.40002 7.00001 3.40002Z" fill="#F37021"/>
</svg>
