<svg width="15" height="18" viewBox="0 0 15 18" fill="none" xmlns="http://www.w3.org/2000/svg">
<path d="M7.46565 3.83533C5.46367 3.83533 3.83533 5.46437 3.83533 7.46565C3.83533 9.46763 5.46363 11.0967 7.46565 11.0967C9.46767 11.0967 11.0967 9.46769 11.0967 7.46641C11.0967 5.46367 9.46769 3.83533 7.46565 3.83533ZM7.46565 9.97183C6.08382 9.97183 4.96024 8.84756 4.96024 7.46641C4.96024 6.08457 6.0845 4.96099 7.46565 4.96099C8.84749 4.96099 9.97107 6.08526 9.97107 7.46641C9.97107 8.84756 8.84754 9.97183 7.46565 9.97183Z" fill="#2A5CAA"/>
<path d="M7.46566 0C3.34896 0 0 3.34914 0 7.46566C0 11.4757 2.89535 14.0728 5.6954 16.5849C6.15577 16.9979 6.63241 17.4256 7.08093 17.8475C7.18899 17.9489 7.3274 18 7.46579 18C7.60418 18 7.74259 17.9489 7.85141 17.8475C8.29993 17.4256 8.77584 16.9986 9.23694 16.5849C12.0368 14.0728 14.9323 11.4757 14.9323 7.46566C14.9316 3.34896 11.5824 0 7.46592 0H7.46566ZM8.48556 15.7478C8.14881 16.049 7.80389 16.3591 7.46566 16.67C7.12741 16.3591 6.78251 16.0497 6.44576 15.7478C3.82931 13.4007 1.12419 10.974 1.12419 7.46642C1.12419 3.97005 3.96857 1.12567 7.46494 1.12567C10.9613 1.12567 13.8057 3.97005 13.8057 7.46642C13.8064 10.974 11.1013 13.4007 8.48556 15.7478Z" fill="#2A5CAA"/>
</svg>
