<svg width="8" height="13" viewBox="0 0 8 13" fill="none" xmlns="http://www.w3.org/2000/svg">
<path fill-rule="evenodd" clip-rule="evenodd" d="M7.71787 6.73777L1.29133 12.0879C1.13222 12.223 0.925192 12.2892 0.716728 12.2709C0.508264 12.2532 0.315614 12.1526 0.181423 11.9916C0.0477219 11.831 -0.0165032 11.6235 0.00362923 11.415C0.0232782 11.2071 0.125833 11.0154 0.287814 10.8826L5.99015 6.13489L0.287814 1.38715C-0.0452479 1.10968 -0.0902974 0.615105 0.187175 0.282521C0.46417 -0.0505401 0.958745 -0.0955896 1.29133 0.181883L7.71063 5.52672C7.75041 5.55883 7.78683 5.59477 7.81941 5.63359C8.09545 5.96665 8.04998 6.46077 7.71787 6.73777Z" fill="#54D8F6"/>
</svg>
