<svg width="24" height="18" viewBox="0 0 24 18" fill="none" xmlns="http://www.w3.org/2000/svg">
<path d="M22.5009 15.001C23.3292 15.001 24 15.6719 24 16.5002C24 17.2694 23.422 17.9036 22.6753 17.9908L22.5009 18.0007H7.49984C6.67152 18.0007 5.99931 17.3285 5.99931 16.5002C5.99931 15.7309 6.57871 15.0967 7.32545 15.0109L7.49983 15.001H22.5009ZM1.49913 2.99964C2.32745 2.99964 2.99967 2.32882 2.99967 1.5005C2.99967 0.672186 2.32745 -3.05176e-05 1.49913 -3.05176e-05C0.670813 -3.05176e-05 0 0.672186 0 1.5005C0 2.32882 0.670813 2.99964 1.49913 2.99964ZM1.49913 10.5009C2.32745 10.5009 2.99967 9.82866 2.99967 9.00034C2.99967 8.17202 2.32745 7.4998 1.49913 7.4998C0.670813 7.4998 0 8.17202 0 9.00034C0 9.82866 0.670813 10.5009 1.49913 10.5009ZM1.49913 18.0007C2.32745 18.0007 2.99967 17.3285 2.99967 16.5001C2.99967 15.6718 2.32745 15.001 1.49913 15.001C0.670813 15.001 0 15.6718 0 16.5001C0 17.3285 0.670813 18.0007 1.49913 18.0007ZM22.5009 7.4998C23.3292 7.4998 24 8.17202 24 9.00034C24 9.76958 23.422 10.4038 22.6753 10.4896L22.5009 10.5009H7.49984C6.67152 10.5009 5.99931 9.82864 5.99931 9.00032C5.99931 8.23108 6.57871 7.59684 7.32545 7.51105L7.49983 7.4998H22.5009ZM22.5009 5.18931e-06C23.3292 5.18931e-06 24 0.672222 24 1.50054C24 2.26978 23.422 2.90402 22.6753 2.98981L22.5009 2.99965H7.49984C6.67152 2.99965 5.99931 2.32884 5.99931 1.50052C5.99931 0.731279 6.57871 0.0970445 7.32545 0.0098493L7.49983 4.50264e-06L22.5009 5.18931e-06Z" fill="white"/>
</svg>
