<svg width="14" height="14" viewBox="0 0 14 14" fill="none" xmlns="http://www.w3.org/2000/svg">
<path d="M4.84623 10.3265L7.00159 8.17114C7.13165 8.04108 7.25728 7.9034 7.4013 7.79045C7.34737 7.8317 7.29471 7.87293 7.24141 7.91418C7.35435 7.82852 7.47616 7.75556 7.60623 7.69973C7.54278 7.72638 7.47934 7.75366 7.41715 7.77904C7.55801 7.72066 7.70583 7.67879 7.8581 7.65849C7.78831 7.668 7.71725 7.67752 7.64745 7.68704C7.79211 7.66927 7.93613 7.66927 8.08017 7.68704C8.01037 7.67752 7.93931 7.668 7.86952 7.65849C8.02179 7.67879 8.169 7.71876 8.31047 7.77904C8.24702 7.75239 8.18357 7.72511 8.12139 7.69973C8.25146 7.75683 8.37391 7.82789 8.48621 7.91418C8.43228 7.87293 8.37962 7.8317 8.32632 7.79045C8.43545 7.87611 8.53252 7.97318 8.61818 8.08231C8.57694 8.02838 8.5357 7.97572 8.49446 7.92243C8.58011 8.03536 8.65308 8.15718 8.70891 8.28725C8.68226 8.2238 8.65498 8.16035 8.6296 8.09817C8.68797 8.23902 8.72985 8.38685 8.75015 8.53912C8.74063 8.46933 8.73112 8.39826 8.7216 8.32847C8.73936 8.47313 8.73936 8.61715 8.7216 8.76118C8.73112 8.69139 8.74063 8.62033 8.75015 8.55054C8.72985 8.70281 8.68988 8.85001 8.6296 8.99148C8.65625 8.92804 8.68353 8.86459 8.70891 8.80241C8.65181 8.93247 8.58075 9.05493 8.49446 9.16723C8.5357 9.1133 8.57694 9.06063 8.61818 9.00734C8.51032 9.14375 8.38026 9.26429 8.25653 9.38674C8.04208 9.60119 7.82827 9.81501 7.61445 10.0288L6.19324 11.45C6.01687 11.6264 5.84429 11.8041 5.6476 11.9563C5.70153 11.9151 5.75419 11.8739 5.80749 11.8326C5.58225 12.0052 5.33672 12.1479 5.07468 12.259C5.13812 12.2323 5.20157 12.205 5.26376 12.1797C4.98777 12.2951 4.69717 12.3751 4.40088 12.4157C4.47067 12.4062 4.54173 12.3967 4.61153 12.3871C4.30825 12.4265 4.00244 12.4265 3.70106 12.3871C3.77085 12.3967 3.84191 12.4062 3.91171 12.4157C3.61478 12.3744 3.32482 12.2951 3.04883 12.1797C3.11228 12.2063 3.17573 12.2336 3.23791 12.259C2.97651 12.1479 2.7316 12.0052 2.5051 11.8326C2.55903 11.8739 2.61169 11.9151 2.66499 11.9563C2.43024 11.7711 2.22404 11.5649 2.04448 11.3333C2.08572 11.3872 2.12696 11.4399 2.1682 11.4932C1.99563 11.2679 1.85287 11.0224 1.74184 10.7604C1.76849 10.8238 1.79577 10.8873 1.82115 10.9495C1.70567 10.6735 1.62574 10.3829 1.58513 10.0866C1.59465 10.1564 1.60416 10.2274 1.61368 10.2972C1.57434 9.99395 1.57434 9.68813 1.61368 9.38676C1.60416 9.45655 1.59465 9.52761 1.58513 9.59741C1.62637 9.30048 1.70568 9.01052 1.82115 8.73453C1.7945 8.79797 1.76722 8.86142 1.74184 8.92361C1.85287 8.6622 1.99563 8.4173 2.1682 8.1908C2.12696 8.24473 2.08572 8.29739 2.04448 8.35069C2.27288 8.05566 2.55522 7.79871 2.81853 7.5373L7.407 2.94883C7.61319 2.74264 7.81812 2.53642 8.0256 2.33022C8.12839 2.22744 8.23815 2.13226 8.35425 2.04155C8.30032 2.08279 8.24766 2.12403 8.19436 2.16527C8.4196 1.9927 8.66513 1.84994 8.92717 1.73891C8.86373 1.76556 8.80028 1.79284 8.73809 1.81822C9.01408 1.70274 9.30468 1.6228 9.60097 1.5822C9.53118 1.59172 9.46012 1.60123 9.39032 1.61075C9.6936 1.57141 9.99941 1.57141 10.3008 1.61075C10.231 1.60123 10.1599 1.59172 10.0901 1.5822C10.3871 1.62344 10.677 1.70275 10.953 1.81822C10.8896 1.79157 10.8261 1.76429 10.7639 1.73891C11.0253 1.84994 11.2702 1.9927 11.4967 2.16527C11.4428 2.12403 11.3902 2.08279 11.3369 2.04155C11.5665 2.22238 11.7727 2.42857 11.9523 2.66016C11.9111 2.60623 11.8698 2.55357 11.8286 2.50027C12.0012 2.7255 12.1439 2.97104 12.2549 3.23308C12.2283 3.16963 12.201 3.10618 12.1756 3.044C12.2911 3.31999 12.371 3.61058 12.4117 3.90688C12.4021 3.83708 12.3926 3.76602 12.3831 3.69623C12.4224 3.99951 12.4224 4.30532 12.3831 4.60669C12.3926 4.5369 12.4021 4.46584 12.4117 4.39605C12.3704 4.69297 12.2911 4.98293 12.1756 5.25892C12.2023 5.19548 12.2296 5.13203 12.2549 5.06984C12.1439 5.33125 12.0012 5.57615 11.8286 5.80265C11.8698 5.74872 11.9111 5.69606 11.9523 5.64277C11.8635 5.75824 11.767 5.868 11.6636 5.97141C11.519 6.11607 11.432 6.32798 11.432 6.53291C11.432 6.72832 11.5177 6.95927 11.6636 7.09441C11.8146 7.23209 12.0126 7.33551 12.2251 7.32599C12.4345 7.31648 12.6344 7.24542 12.7866 7.09441C13.5892 6.28546 14.0479 5.14533 13.9972 4.00138C13.9705 3.39419 13.8183 2.82 13.5531 2.27433C13.4211 2.0015 13.2485 1.76232 13.0613 1.52438C12.9122 1.33404 12.7422 1.15766 12.5569 1.00412C12.0906 0.6171 11.5684 0.322074 10.9835 0.157116C10.6961 0.0765394 10.3947 0.0314912 10.0965 0.0092846C9.8649 -0.0084813 9.63205 -0.000232453 9.40175 0.0295876C9.10227 0.0676564 8.80853 0.117144 8.523 0.216748C8.24383 0.313187 7.96594 0.43373 7.71215 0.586002C7.41267 0.766829 7.13162 0.988894 6.88416 1.23633C6.6824 1.43809 6.48317 1.63732 6.28142 1.83907C5.88805 2.23244 5.49596 2.62453 5.10259 3.01791L1.42645 6.69404C1.09335 7.02714 0.774222 7.37419 0.541372 7.78977C0.396714 8.04672 0.278067 8.32463 0.189237 8.60696C0.0972387 8.89436 0.051557 9.19067 0.0191957 9.48887C-0.00618302 9.72362 -0.00618302 9.95964 0.0179268 10.1944C0.0483813 10.4894 0.0940629 10.7832 0.181617 11.0668C0.362444 11.6492 0.662538 12.1695 1.06353 12.6263C1.26339 12.8547 1.49624 13.0451 1.73924 13.2278C1.93086 13.3706 2.13769 13.493 2.35468 13.5907C2.62751 13.7144 2.9054 13.8242 3.19852 13.8902C3.48912 13.9549 3.79174 13.9949 4.08995 13.9993C4.61656 14.0088 5.16538 13.9187 5.65392 13.7189C5.93181 13.6047 6.20083 13.4829 6.45016 13.3128C6.67857 13.1574 6.89936 12.9816 7.09606 12.7862C7.18615 12.6974 7.27499 12.6073 7.36572 12.5166C7.80223 12.08 8.24001 11.6423 8.67589 11.2064C8.9836 10.8987 9.29133 10.5941 9.59714 10.2851C9.7621 10.1202 9.91247 9.92666 10.021 9.72045C10.1954 9.38925 10.2824 9.05552 10.3141 8.685C10.3699 8.02388 10.1034 7.36214 9.66693 6.87543C9.22789 6.38373 8.57247 6.11281 7.92088 6.09187C7.73815 6.08553 7.55416 6.11217 7.37523 6.14263C7.26103 6.16166 7.1481 6.19338 7.03897 6.23653C6.69508 6.37294 6.39499 6.54614 6.1304 6.80881C5.84299 7.09242 5.55938 7.37983 5.27388 7.66534L3.73022 9.20899C3.58556 9.35365 3.49863 9.56556 3.49863 9.77049C3.49863 9.96591 3.58429 10.1969 3.73022 10.332C3.88122 10.4697 4.07917 10.5731 4.29172 10.5636C4.49538 10.5483 4.69524 10.4767 4.84625 10.3263L4.84623 10.3265Z" fill="#2A5CAA"/>
</svg>
