<svg width="27" height="26" viewBox="0 0 27 26" fill="none" xmlns="http://www.w3.org/2000/svg">
<path d="M10.7929 17.1209C10.7929 18.7147 8.40283 18.7147 8.40283 17.1209C8.40283 15.5271 10.7929 15.5271 10.7929 17.1209Z" fill="#28EEA2"/>
<path d="M14.3479 17.1209C14.3479 18.7147 11.9565 18.7147 11.9565 17.1209C11.9565 15.5271 14.3479 15.5271 14.3479 17.1209Z" fill="#28EEA2"/>
<path d="M7.26997 17.1209C7.26997 18.7147 4.87866 18.7147 4.87866 17.1209C4.87866 15.5271 7.26997 15.5271 7.26997 17.1209Z" fill="#28EEA2"/>
<path d="M0.88376 24.2921C0.506516 25.5504 1.19834 26.2422 2.45666 25.865L5.47712 24.9212C9.34677 26.966 14.1281 25.865 16.7073 22.3726C17.9656 22.2473 19.192 21.9007 20.325 21.3662L24.8864 22.3738C26.1447 22.6565 26.9631 21.87 26.6792 20.581L25.6409 16.0196C28.3148 10.4518 25.9874 3.78308 20.4503 1.10915C14.9131 -1.56478 8.21378 0.762608 5.53985 6.29971C5.00532 7.4327 4.65878 8.6271 4.50149 9.88529C0.852994 12.4953 -0.311894 17.3713 1.79683 21.3036L0.88376 24.2921ZM15.5438 2.36618C20.4519 2.39813 24.3841 6.39311 24.352 11.2691C24.352 12.5594 24.0694 13.8484 23.5029 15.012L23.1564 15.7357L24.0681 19.7627L20.0733 18.8509L19.3495 19.1974C18.9403 19.3867 18.5311 19.544 18.0912 19.7013C19.5068 15.0147 16.8955 10.0745 12.2089 8.6589C10.5733 8.15507 8.8111 8.15507 7.14351 8.62695C8.24577 4.9146 11.6742 2.39795 15.5438 2.36618ZM9.59761 10.6399C13.1832 10.6399 16.0786 13.5338 16.0786 17.1209C16.0786 20.7065 13.1847 23.6019 9.59761 23.6019C8.52854 23.6019 7.49018 23.35 6.57715 22.8474L5.6973 22.405L3.74716 23.0022L4.34435 21.0521L3.87248 20.203C2.17426 17.0572 3.36865 13.1249 6.54641 11.4268C7.49015 10.8923 8.52851 10.6404 9.59758 10.6404L9.59761 10.6399Z" fill="#28EEA2"/>
</svg>
