<svg width="77" height="32" viewBox="0 0 77 32" fill="none" xmlns="http://www.w3.org/2000/svg">
<g clip-path="url(#clip0_459_5867)">
<path fill-rule="evenodd" clip-rule="evenodd" d="M68.5689 14.8955H66.1689V11.9454H68.5689C68.9602 11.9454 69.3353 12.1008 69.612 12.3775C69.8886 12.6541 70.044 13.0293 70.044 13.4205C70.044 13.8117 69.8886 14.1869 69.612 14.4635C69.3353 14.7401 68.9602 14.8955 68.5689 14.8955ZM72.0402 17.3946C73.6661 16.7142 74.4935 15.2407 74.4935 13.3717C74.4935 11.6033 73.8489 10.2959 72.5773 9.48373C71.3964 8.72944 69.8627 8.3782 67.7537 8.3782H61.8474V22.3744H66.2368V18.4635H67.8139L70.4882 22.3744H75.1541L71.6158 17.5729L72.0402 17.3946ZM53.0665 17.0571H59.4459V13.6955H53.0665V11.8075H59.5137V8.37744H48.6086V22.3736H59.6516V18.9435H53.0665V17.0571ZM39.2105 17.5805L35.919 8.37744H31.2539L36.7411 22.3736H41.6806L47.1678 8.37744H42.5034L39.2105 17.5805ZM24.1339 17.1599L25.6973 12.7873L27.2615 17.1599H24.1339ZM23.2288 8.37744L17.7408 22.3736H22.4051L23.068 20.5222H28.3274L28.9903 22.3736H33.6547L28.1659 8.3782L23.2288 8.37744ZM11.7728 15.8685L6.5598 8.37744H2.23828V22.3736H6.76552V14.8833L11.9792 22.3744H16.3008V8.3782H11.7728V15.8685Z" fill="white"/>
</g>
<defs>
<clipPath id="clip0_459_5867">
<rect width="72.8889" height="16" fill="white" transform="translate(2.23828 7)"/>
</clipPath>
</defs>
</svg>
