<svg width="139" height="32" viewBox="0 0 139 32" fill="none" xmlns="http://www.w3.org/2000/svg">
<g clip-path="url(#clip0_459_5866)">
<path fill-rule="evenodd" clip-rule="evenodd" d="M132.907 19.2752C131.596 19.2752 130.643 18.2999 130.643 16.9574C130.643 15.6142 131.596 14.6397 132.907 14.6397C134.217 14.6397 135.169 15.615 135.169 16.9574C135.169 18.2999 134.217 19.2752 132.907 19.2752ZM134.838 8.62069V11.8207C134.095 11.427 133.267 11.2229 132.426 11.2264C129.15 11.2264 126.772 13.6371 126.772 16.9574C126.772 20.2839 129.15 22.6984 132.426 22.6984C133.568 22.6984 134.64 22.3007 135.455 21.586L135.791 22.3464H138.743V7.69116L134.838 8.62069ZM121.354 17.5373C121.354 18.5354 120.858 19.1068 119.993 19.1068C119.119 19.1068 118.62 18.5354 118.62 17.5373V11.522L114.674 12.4515V17.695C114.674 20.6816 116.812 22.6885 119.993 22.6885C123.167 22.6885 125.3 20.6816 125.3 17.695V11.5213L121.354 12.4508V17.538V17.5373ZM107.154 19.215C105.874 19.215 104.982 18.287 104.982 16.9574C104.982 15.6279 105.874 14.6999 107.154 14.6999C108.434 14.6999 109.327 15.6287 109.327 16.9582C109.327 18.2877 108.434 19.215 107.154 19.215ZM107.154 11.2272C103.665 11.2272 101.133 13.6363 101.133 16.9567C101.133 20.2786 103.665 22.6877 107.154 22.6877C110.644 22.6877 113.176 20.2778 113.176 16.9574C113.176 13.6363 110.644 11.2272 107.154 11.2272ZM95.2192 22.3464H99.3335V7.69345L95.2192 8.6184V22.3464ZM86.5967 18.847C84.7781 18.847 83.4585 17.407 83.4585 15.4245C83.4585 13.4245 84.7781 11.9715 86.5967 11.9715C87.7815 11.9715 88.8009 12.6344 89.3244 13.7445L93.2825 12.7944C92.2988 9.92202 89.7335 8.13916 86.5884 8.13916C82.3926 8.13916 79.2276 11.2706 79.2276 15.4245C79.2276 19.5654 82.3926 22.6877 86.5884 22.6877C90.0459 22.6877 92.7659 20.5315 93.5194 17.1959L93.5453 17.0839H89.2794C88.788 18.1879 87.7853 18.847 86.5967 18.847ZM68.1876 14.8957H65.7876V11.9456H68.1876C68.5788 11.9456 68.954 12.101 69.2306 12.3777C69.5072 12.6543 69.6627 13.0295 69.6627 13.4207C69.6627 13.8119 69.5072 14.1871 69.2306 14.4637C68.954 14.7403 68.5788 14.8957 68.1876 14.8957ZM71.6588 17.3948C73.2847 16.7144 74.1122 15.2409 74.1122 13.3719C74.1122 11.6035 73.4676 10.2961 72.196 9.48392C71.015 8.72964 69.4813 8.3784 67.3724 8.3784H61.4661V22.3746H65.8554V18.4637H67.4326L70.1068 22.3746H74.7728L71.2345 17.5731L71.6588 17.3948ZM52.6851 17.0573H59.0646V13.6957H52.6851V11.8077H59.1324V8.37764H48.2272V22.3738H59.2703V18.9437H52.6851V17.0573ZM38.8291 17.5807L35.5377 8.37764H30.8726L36.3598 22.3738H41.2992L46.7865 8.37764H42.1221L38.8291 17.5807ZM23.7526 17.1601L25.316 12.7875L26.8802 17.1601H23.7526ZM22.8474 8.37764L17.3594 22.3738H22.0238L22.6866 20.5224H27.9461L28.6089 22.3738H33.2733L27.7846 8.3784H22.8474V8.37764ZM11.3914 15.8687L6.17846 8.37764H1.85693V22.3738H6.38417V14.8835L11.5979 22.3746H15.9194V8.3784H11.3914V15.8687Z" fill="white"/>
</g>
<defs>
<clipPath id="clip0_459_5866">
<rect width="137.143" height="16" fill="white" transform="translate(1.85693 7)"/>
</clipPath>
</defs>
</svg>
