<svg width="170" height="32" viewBox="0 0 170 32" fill="none" xmlns="http://www.w3.org/2000/svg">
<g clip-path="url(#clip0_459_5864)">
<path d="M19 28.4128C12.1558 28.4128 6.58721 22.8442 6.58721 16C6.58721 9.15581 12.1558 3.58721 19 3.58721H29.3731C32.5459 3.27641 33.038 0.213679 33.0704 0H19C10.1744 0 3 7.17442 3 16C3 24.8256 10.1744 32 19 32C27.2493 32 34.0611 25.7191 34.9093 17.6965H31.2962C30.4674 23.7378 25.2744 28.4128 19.0065 28.4128H19Z" fill="url(#paint0_linear_459_5864)"/>
<path d="M19 25.4666C13.7811 25.4666 9.5334 21.219 9.5334 16C9.5334 10.7811 13.7811 6.5334 19 6.5334H26.4399C28.0069 6.39742 28.622 5.23837 28.8422 4.55201V4.53906H19C12.6803 4.53906 7.53906 9.6803 7.53906 16C7.53906 22.3197 12.6803 27.461 19 27.461C24.7434 27.461 29.5156 23.2133 30.3379 17.6965H28.3177C27.5148 22.1125 23.6491 25.4666 19.0065 25.4666H19Z" fill="url(#paint1_linear_459_5864)"/>
<path d="M25.6953 17.6965C24.9377 20.688 22.2246 22.9089 18.9935 22.9089C15.1862 22.9089 12.0846 19.8073 12.0846 16C12.0846 12.1926 15.1862 9.09104 18.9935 9.09104H24.1866C25.3262 8.90326 25.8442 8.0874 26.0708 7.50464H18.9935C14.3055 7.50464 10.4917 11.3185 10.4917 16.0065C10.4917 20.6944 14.3055 24.5083 18.9935 24.5083C23.1052 24.5083 26.5435 21.5815 27.327 17.6965H25.6888H25.6953Z" fill="url(#paint2_linear_459_5864)"/>
<path d="M28.5833 14.3943H20.7225C20.3017 13.9604 19.7189 13.6885 19.0649 13.6885C17.7958 13.6885 16.7598 14.7245 16.7598 15.9936C16.7598 17.2627 17.7893 18.2988 19.0649 18.2988C19.6671 18.2988 20.211 18.0657 20.6189 17.6901H34.916C34.9743 17.1332 35.0066 16.5634 35.0066 15.9871C35.0066 15.4497 34.9807 14.9187 34.9289 14.3943H28.5898H28.5833Z" fill="url(#paint3_linear_459_5864)"/>
<path d="M19.0063 28.4128V32.0001C27.2556 32.0001 34.061 25.7192 34.9092 17.6965H31.2961C30.4673 23.7378 25.2743 28.4128 19.0063 28.4128Z" fill="url(#paint4_linear_459_5864)"/>
<path d="M19.0063 25.4667V27.461C24.7498 27.461 29.5155 23.2133 30.3378 17.6965H28.3176C27.5146 22.1126 23.649 25.4667 19.0128 25.4667H19.0063Z" fill="url(#paint5_linear_459_5864)"/>
<path d="M25.6953 17.6964C24.9377 20.6879 22.2246 22.9089 19 22.9089V24.5018C23.1052 24.5018 26.5435 21.5685 27.3335 17.6899H25.6953V17.6964Z" fill="url(#paint6_linear_459_5864)"/>
<path d="M53.3699 8.69618C53.3699 8.04219 52.839 7.51123 52.185 7.51123H51.5181V15.5274H53.3699V12.1215H55.1441V10.3538H53.3699V8.6897V8.69618Z" fill="white"/>
<path d="M52.7548 16.5051C52.457 16.2461 52.0944 16.0453 51.68 15.9094C51.272 15.7734 50.8123 15.7021 50.3267 15.7021H46.2344C45.7488 15.7021 45.289 15.7734 44.8811 15.9094C44.4667 16.0453 44.1041 16.2461 43.7998 16.5051C43.5019 16.7705 43.2623 17.0878 43.094 17.4504C42.9191 17.8195 42.835 18.2339 42.835 18.6872C42.835 19.1404 42.9191 19.5548 43.094 19.9239C43.2623 20.2865 43.5019 20.6103 43.7998 20.8693C44.1041 21.1283 44.4667 21.329 44.8811 21.465C45.289 21.601 45.7488 21.6722 46.2344 21.6722H50.3267C50.8123 21.6722 51.272 21.601 51.68 21.465C52.0944 21.329 52.457 21.1283 52.7548 20.8693C53.0592 20.6103 53.2987 20.293 53.4671 19.9239C53.6354 19.5548 53.7261 19.1404 53.7261 18.6872C53.7261 18.2339 53.6419 17.8195 53.4671 17.4504C53.2987 17.0878 53.0656 16.7705 52.7548 16.5051ZM51.8677 18.6872C51.8677 19.1016 51.7253 19.3994 51.4339 19.6066C51.1296 19.8203 50.7216 19.9304 50.2295 19.9304H46.3186C45.82 19.9304 45.4185 19.8203 45.1142 19.6066C44.8228 19.3994 44.6804 19.0951 44.6804 18.6872C44.6804 18.2792 44.8293 17.9684 45.1142 17.7677C45.4185 17.554 45.82 17.444 46.3186 17.444H50.2295C50.7216 17.444 51.1296 17.554 51.4339 17.7677C51.7253 17.9749 51.8677 18.2857 51.8677 18.6872Z" fill="white"/>
<path d="M48.0216 13.1639C48.2741 13.0539 48.4878 12.9308 48.6561 12.7949C48.831 12.6589 48.9734 12.5035 49.0835 12.3287C49.1936 12.1603 49.2713 11.9531 49.3231 11.7265C49.3684 11.5063 49.3943 11.2473 49.3943 10.9689V7.87378H42.1163V9.60911H47.5489V10.6969C47.5489 11.0013 47.5101 11.2214 47.4324 11.3509C47.3547 11.4804 47.2122 11.6034 47.005 11.707C46.6165 11.9013 46.2021 12.0956 45.7747 12.2833C45.3538 12.4711 44.8941 12.6718 44.4149 12.8726C43.9423 13.0733 43.4696 13.2675 42.9904 13.4618L42.6731 13.5913C42.3041 13.7402 41.935 13.8956 41.5724 14.0446L41.4429 14.0964L42.1681 15.6115L42.2846 15.5662C43.243 15.1971 44.2272 14.8021 45.2179 14.3877C46.2086 13.9733 47.1604 13.5589 48.041 13.1639H48.0216Z" fill="white"/>
<path d="M59.4827 17.6771H61.3346V15.223H65.401V13.4941H55.8696V15.223H59.4827V17.6771Z" fill="white"/>
<path d="M62.8496 17.593H66.1843V18.7196H68.0362V8.69618C68.0362 8.04219 67.5052 7.51123 66.8512 7.51123H66.1908V15.9224H62.8561V17.593H62.8496Z" fill="white"/>
<path d="M57.5401 12.3482C57.8962 12.5943 58.3365 12.7886 58.861 12.9245C59.3725 13.0605 59.9877 13.1253 60.687 13.1253C61.3863 13.1253 61.982 13.0605 62.5 12.9245C63.0245 12.7886 63.4713 12.5943 63.8274 12.3482C64.19 12.1022 64.462 11.7979 64.6303 11.4676C64.8116 11.1244 64.9023 10.7424 64.9023 10.341C64.9023 9.9395 64.8116 9.56395 64.6368 9.22077C64.462 8.87758 64.19 8.57973 63.8274 8.3272C63.4778 8.08115 63.031 7.88042 62.5065 7.74444C61.9885 7.60199 61.3733 7.53076 60.687 7.53076C60.0006 7.53076 59.379 7.60199 58.861 7.74444C58.343 7.88689 57.8962 8.08115 57.5465 8.3272C57.1839 8.57325 56.912 8.87758 56.7372 9.22077C56.5623 9.56395 56.4717 9.9395 56.4717 10.341C56.4717 10.7424 56.5623 11.118 56.7372 11.4612C56.912 11.8043 57.1839 12.1022 57.5465 12.3547L57.5401 12.3482ZM58.3171 10.3345C58.3171 10.0496 58.5049 9.79058 58.8739 9.57042C59.2689 9.33732 59.8711 9.22077 60.687 9.22077C61.5028 9.22077 62.105 9.33732 62.5 9.57042C62.8691 9.79058 63.0569 10.0496 63.0569 10.3345C63.0569 10.6194 62.8691 10.8784 62.5 11.0921C62.105 11.3252 61.5028 11.4417 60.687 11.4417C59.8711 11.4417 59.2689 11.3252 58.8739 11.0921C58.5049 10.8784 58.3171 10.6194 58.3171 10.3345Z" fill="white"/>
<path d="M59.243 19.9174V17.3274H57.3911V21.5751H68.3535V19.9174H59.243Z" fill="white"/>
<path d="M77.6839 15.8382C77.0752 15.0288 76.5313 14.2259 76.0521 13.4619C75.9162 13.2417 75.8255 12.9762 75.7672 12.6719C75.7089 12.3546 75.6766 12.0438 75.6766 11.733V9.81638H78.7717V8.08105H70.5353V9.81638H73.7988V11.7783C73.7988 12.0891 73.7664 12.4064 73.7017 12.7172C73.6369 13.028 73.5398 13.3 73.4103 13.5201C73.1707 13.9022 72.9117 14.3036 72.6268 14.7245C72.3484 15.126 72.0505 15.5469 71.7332 15.9677C71.403 16.408 71.0792 16.8225 70.7749 17.2045C70.4771 17.58 70.1598 17.9621 69.8101 18.3894L69.7324 18.4801L70.8915 19.7298L70.9562 19.7945L71.0533 19.678C71.798 18.7715 72.4584 17.9621 73.0801 17.198C73.7017 16.4339 74.265 15.6764 74.7571 14.9382C75.2492 15.6634 75.7802 16.3821 76.3435 17.075C76.9457 17.8261 77.5867 18.629 78.2796 19.4837L78.3767 19.6068L79.594 18.2923L79.5163 18.2017C78.9141 17.4505 78.299 16.6606 77.6839 15.8382Z" fill="white"/>
<path d="M81.0444 7.38818H80.3774V21.5752H82.2293V8.57313C82.2293 7.91914 81.6984 7.38818 81.0444 7.38818Z" fill="white"/>
<path d="M85.4927 17.8325H94.2276V21.601H96.0795V16.0972H85.4927V17.8325Z" fill="white"/>
<path d="M94.8945 7.45284H94.2341V8.77376H91.4757C91.1195 8.33993 90.6663 7.99027 90.1288 7.74422C89.5785 7.48522 88.9504 7.35571 88.2705 7.35571C87.6813 7.35571 87.1244 7.45284 86.6258 7.65357C86.1272 7.84782 85.6869 8.13273 85.3308 8.48238C84.9682 8.83851 84.6833 9.26587 84.4825 9.74503C84.2818 10.2307 84.1782 10.7551 84.1782 11.312C84.1782 11.8689 84.2818 12.3933 84.4825 12.8725C84.6898 13.3517 84.9747 13.779 85.3308 14.1352C85.6934 14.4913 86.1272 14.7697 86.6258 14.9704C87.1244 15.1647 87.6748 15.2683 88.2705 15.2683C88.9115 15.2683 89.5072 15.1517 90.0317 14.9186C90.5368 14.6985 90.9771 14.3942 91.3332 14.0057H94.2341V15.5921H96.0859V8.63779C96.0859 7.9838 95.555 7.45284 94.901 7.45284H94.8945ZM92.3628 11.3055C92.3628 11.0336 92.3369 10.7616 92.2786 10.4897H94.2341V12.2833H92.2527C92.2851 12.1538 92.3045 12.0243 92.3239 11.8948C92.3498 11.707 92.3628 11.5127 92.3628 11.3055ZM90.5109 11.3055C90.5109 11.6358 90.4591 11.9466 90.3555 12.2185C90.2519 12.4905 90.0965 12.7301 89.8957 12.9308C89.708 13.1315 89.4749 13.2804 89.2029 13.3905C88.9245 13.5006 88.6137 13.5589 88.264 13.5589C87.9144 13.5589 87.6036 13.5071 87.3251 13.3905C87.0532 13.2804 86.8136 13.125 86.6193 12.9308C86.4251 12.7301 86.2762 12.497 86.1726 12.2185C86.069 11.9466 86.0172 11.6358 86.0172 11.3055C86.0172 10.9753 86.069 10.6645 86.1726 10.3925C86.2762 10.1206 86.4251 9.88101 86.6193 9.68675C86.8136 9.4925 87.0467 9.3371 87.3251 9.22702C87.6036 9.11694 87.9208 9.05867 88.264 9.05867C88.6072 9.05867 88.9245 9.11694 89.2029 9.22702C89.4749 9.3371 89.7144 9.4925 89.9087 9.68675C90.1029 9.88748 90.2519 10.1271 90.3555 10.3925C90.4591 10.6645 90.5109 10.9753 90.5109 11.3055Z" fill="white"/>
<path d="M99.4663 18.3893H108.188V21.601H110.034V16.7317H99.4663V18.3893Z" fill="white"/>
<path d="M103.422 16.0389C104.309 16.0389 105.035 15.8058 105.566 15.3525C106.103 14.8928 106.375 14.2194 106.375 13.3582C106.375 12.497 106.103 11.8236 105.566 11.3639C105.028 10.9106 104.309 10.6775 103.422 10.6775H101.376C100.489 10.6775 99.7703 10.9106 99.2329 11.3639C98.6954 11.8236 98.417 12.497 98.417 13.3582C98.417 14.2194 98.6889 14.8928 99.2329 15.3525C99.7703 15.8058 100.489 16.0389 101.376 16.0389H103.422ZM104.439 12.8726C104.497 13.0021 104.529 13.1639 104.529 13.3517C104.529 13.5395 104.497 13.7014 104.439 13.8309C104.374 13.9604 104.296 14.0575 104.186 14.1352C104.076 14.2129 103.947 14.2712 103.798 14.3036C103.642 14.3359 103.468 14.3554 103.286 14.3554H101.512C101.331 14.3554 101.156 14.3359 101.001 14.3036C100.852 14.2712 100.722 14.2129 100.606 14.1352C100.496 14.0575 100.418 13.9604 100.353 13.8309C100.288 13.7014 100.262 13.5395 100.262 13.3517C100.262 12.9762 100.372 12.7172 100.599 12.5747C100.845 12.4193 101.149 12.3416 101.506 12.3416H103.28C103.461 12.3416 103.629 12.361 103.791 12.3934C103.94 12.4258 104.07 12.484 104.18 12.5617C104.29 12.6394 104.374 12.7431 104.432 12.8661L104.439 12.8726Z" fill="white"/>
<path d="M106.79 8.46951H103.364V8.30116C103.364 7.64717 102.833 7.11621 102.179 7.11621H101.512V8.46951H98.0547V10.2048H106.79V8.46951Z" fill="white"/>
<path d="M108.849 7.38818H108.188V10.5675H106.718V12.2575H108.188V13.3388H106.718V15.0223H108.188V16.3044H110.04V8.57313C110.04 7.91914 109.509 7.38818 108.855 7.38818H108.849Z" fill="white"/>
<path d="M123.994 8.54066C123.994 7.88667 123.463 7.35571 122.809 7.35571H122.142V17.7742H123.994V8.54066Z" fill="white"/>
<path d="M114.761 14.2518C115.11 13.941 115.453 13.6367 115.771 13.3324C116.049 13.0734 116.302 12.8273 116.528 12.5942C116.761 12.8208 117.014 13.0669 117.292 13.313C117.616 13.6043 117.953 13.8957 118.283 14.1806C118.633 14.4849 118.969 14.7699 119.28 15.0353C119.61 15.3073 119.921 15.5663 120.206 15.7864L120.316 15.8706L121.372 14.459L121.268 14.3749C120.659 13.8957 120.044 13.3777 119.429 12.8273C118.82 12.2834 118.27 11.7589 117.791 11.2539C117.661 11.1244 117.577 10.9819 117.532 10.8395C117.487 10.6905 117.461 10.5157 117.461 10.315V7.63428H115.576V10.315C115.576 10.5157 115.551 10.6841 115.505 10.833C115.46 10.9754 115.376 11.1179 115.246 11.2603C115.02 11.5129 114.761 11.7783 114.469 12.0697C114.191 12.3482 113.886 12.6331 113.569 12.9244C113.284 13.1899 112.967 13.4748 112.624 13.7727C112.306 14.0511 111.996 14.3166 111.691 14.5756L111.594 14.6598L112.604 15.9677L112.656 16.0325L112.766 15.9418C113.051 15.7087 113.368 15.4433 113.712 15.1519C114.048 14.867 114.398 14.5626 114.754 14.2518H114.761Z" fill="white"/>
<path d="M115.408 16.4016H113.556V21.4133H124.311V19.678H115.408V16.4016Z" fill="white"/>
<path d="M138.026 11.7848C138.026 11.1309 137.495 10.5999 136.834 10.5999H135.986V8.98113H137.715V8.49549C137.715 7.84151 137.184 7.31055 136.53 7.31055H126.888V8.98113H128.585V10.5999H126.584V12.2705H138.026V11.7848ZM134.147 8.98113V10.5999H130.443V8.98113H134.147Z" fill="white"/>
<path d="M138.984 12.9631H125.632V14.6013H138.984V12.9631Z" fill="white"/>
<path d="M128.773 19.2634H137.695V15.3201H126.908V16.9583H135.843V17.6576H126.921V21.6009H137.993V19.9627H128.773V19.2634Z" fill="white"/>
<path d="M149.221 12.335H150.691V16.7057H152.543V8.57948C152.543 7.92549 152.012 7.39453 151.358 7.39453H150.697V10.5997H149.227V8.74135C149.227 8.08737 148.697 7.55641 148.043 7.55641H147.395V15.6244H149.227V12.335H149.221Z" fill="white"/>
<path d="M152.258 19.6714C151.895 19.516 151.52 19.3477 151.138 19.1793C150.775 19.0174 150.399 18.8426 150.03 18.6742C149.668 18.4994 149.35 18.3505 149.066 18.1951C148.884 18.1044 148.742 18.0073 148.632 17.9167C148.528 17.8195 148.444 17.7159 148.386 17.6188C148.327 17.5152 148.289 17.4051 148.269 17.2886C148.25 17.1655 148.243 17.0231 148.243 16.8547V16.259H146.333V16.8547C146.333 17.172 146.281 17.431 146.178 17.6253C146.081 17.8195 145.854 18.0073 145.511 18.1951C145.219 18.344 144.902 18.4994 144.546 18.6742C144.177 18.8491 143.808 19.0239 143.452 19.1793C143.057 19.3541 142.675 19.5225 142.325 19.6714C141.956 19.8268 141.606 19.9693 141.295 20.0988L141.146 20.157L142.059 21.6658L142.17 21.6204C142.824 21.3614 143.549 21.0571 144.319 20.7204C145.077 20.3902 145.802 20.0534 146.469 19.7232C146.65 19.639 146.812 19.5419 146.948 19.4448C147.058 19.3671 147.168 19.2829 147.291 19.1987C147.401 19.2829 147.518 19.3606 147.628 19.4448C147.771 19.5419 147.932 19.639 148.107 19.7232C148.781 20.0534 149.506 20.3902 150.257 20.7204C151.015 21.0506 151.74 21.3549 152.407 21.6204L152.51 21.6658L153.43 20.157L153.281 20.0988C152.938 19.9693 152.594 19.8203 152.245 19.6714H152.258Z" fill="white"/>
<path d="M140.182 10.7875V15.6115H146.747V13.902H142.014V12.4581H146.203V7.65356H140.162V9.35652H144.364V10.7875H140.182Z" fill="white"/>
<path d="M161.161 14.1093V13.1575H165.94V12.6395C165.94 11.9855 165.409 11.4545 164.755 11.4545H163.906V9.12996H165.635V8.61842C165.635 7.96444 165.104 7.427 164.45 7.427H154.809V9.12996H156.512V11.4545H154.511V13.1575H159.283V14.1093H153.553V15.8446H166.904V14.1093H161.167H161.161ZM158.357 11.4545V9.12996H162.061V11.4545H158.357Z" fill="white"/>
<path d="M154.835 21.4456H165.603V16.531H154.835V21.4456ZM163.758 18.2275V19.7038H156.687V18.2275H163.758Z" fill="white"/>
</g>
<defs>
<linearGradient id="paint0_linear_459_5864" x1="22.1599" y1="-1.92311" x2="16.2222" y2="31.7604" gradientUnits="userSpaceOnUse">
<stop offset="0.02" stop-color="#3DB1DF"/>
<stop offset="0.15" stop-color="#34A6D8"/>
<stop offset="0.8" stop-color="#0B76B7"/>
</linearGradient>
<linearGradient id="paint1_linear_459_5864" x1="21.2533" y1="3.19871" x2="17.0121" y2="27.2861" gradientUnits="userSpaceOnUse">
<stop stop-color="#81B62B"/>
<stop offset="0.8" stop-color="#17A58D"/>
</linearGradient>
<linearGradient id="paint2_linear_459_5864" x1="20.6641" y1="6.53985" x2="17.5237" y2="24.3723" gradientUnits="userSpaceOnUse">
<stop stop-color="#EEB934"/>
<stop offset="0.8" stop-color="#E58212"/>
</linearGradient>
<linearGradient id="paint3_linear_459_5864" x1="16.7598" y1="15.9936" x2="35.0066" y2="15.9936" gradientUnits="userSpaceOnUse">
<stop offset="0.02" stop-color="#3DB1DF"/>
<stop offset="0.18" stop-color="#37A8D8"/>
<stop offset="0.45" stop-color="#298FC7"/>
<stop offset="0.79" stop-color="#1368AB"/>
<stop offset="0.96" stop-color="#07539C"/>
</linearGradient>
<linearGradient id="paint4_linear_459_5864" x1="19.0063" y1="24.8451" x2="34.9999" y2="24.8451" gradientUnits="userSpaceOnUse">
<stop offset="0.11" stop-color="#0B76B7"/>
<stop offset="1" stop-color="#06529B"/>
</linearGradient>
<linearGradient id="paint5_linear_459_5864" x1="19.0063" y1="22.5788" x2="30.4608" y2="22.5788" gradientUnits="userSpaceOnUse">
<stop offset="0.11" stop-color="#17A58D"/>
<stop offset="1" stop-color="#1B94D3"/>
</linearGradient>
<linearGradient id="paint6_linear_459_5864" x1="19.0065" y1="21.0959" x2="27.5018" y2="21.0959" gradientUnits="userSpaceOnUse">
<stop offset="0.11" stop-color="#E58212"/>
<stop offset="1" stop-color="#DD580F"/>
</linearGradient>
<clipPath id="clip0_459_5864">
<rect width="163.898" height="32" fill="white" transform="translate(3)"/>
</clipPath>
</defs>
</svg>
