<svg width="163" height="32" viewBox="0 0 163 32" fill="none" xmlns="http://www.w3.org/2000/svg">
<g clip-path="url(#clip0_459_5865)">
<path d="M6.92701 -0.00106809L2.61963 3.17407L5.73651 7.56197L10.0439 4.38683L6.92701 -0.00106809Z" fill="#EC6608"/>
<path d="M41.9421 17.0379L35.9841 7.56641H30.9077V23.6898H35.749V14.5285L41.723 23.6898H46.7833V7.56641H41.9421V17.0379Z" fill="white"/>
<path d="M59.6933 7.56641V16.6079C59.6933 17.8163 59.6933 19.6508 57.5132 19.6508C55.333 19.6508 55.3277 17.8218 55.3277 16.6079V7.56641H50.2246V17.1958C50.2246 22.7862 54.1895 23.962 57.5132 23.962C60.8369 23.962 64.8018 22.7916 64.8018 17.1958V7.56641H59.6987H59.6933Z" fill="white"/>
<path d="M12.3018 7.56641L17.2231 14.5013V7.56641H12.3018Z" fill="white"/>
<path d="M23.5549 15.4866L28.8557 7.56641H23.1862L17.9121 15.4702L23.7526 23.6898H29.3954L23.5549 15.4866Z" fill="white"/>
<path d="M12.3018 23.6898H17.1857L12.3018 16.8093V23.6898Z" fill="white"/>
<path d="M74.2974 8.9707V10.2009H80.8165L80.7898 10.3261C80.2607 13.0805 77.6157 14.6536 73.5226 14.6536H73.4478C73.576 14.8877 74.0355 15.7205 74.0783 15.8022H74.0943C79.7317 15.8022 83.1944 13.4942 83.36 9.62936V8.9707H74.292H74.2974Z" fill="white"/>
<path d="M88.0944 12.803H89.7723V11.5728H88.0944V8.37207H85.8234V17.2013L85.6952 17.1468C84.6265 16.7114 83.2532 16.4828 81.7249 16.4828C77.7333 16.4828 75.3501 17.8926 75.3501 20.2441C75.3501 22.5957 77.7387 24.0001 81.7249 24.0001C85.7112 24.0001 88.0998 22.5957 88.0998 20.2441V12.803H88.0944ZM81.757 22.7971C79.2188 22.7971 77.7012 21.8445 77.7012 20.2496C77.7012 18.6547 79.2188 17.7021 81.757 17.7021C84.2952 17.7021 85.8074 18.6547 85.8074 20.2496C85.8074 21.8445 84.2952 22.7971 81.757 22.7971Z" fill="white"/>
<path d="M97.7979 8.37207C95.3078 8.37207 92.7964 9.33011 92.7964 11.4748C92.7964 13.6195 95.3078 14.5721 97.7979 14.5721C100.288 14.5721 102.799 13.6141 102.799 11.4748C102.799 9.33555 100.288 8.37207 97.7979 8.37207ZM97.7979 13.38C96.4781 13.38 95.062 12.8792 95.062 11.4694C95.062 10.0595 96.4781 9.55329 97.7979 9.55329C99.1178 9.55329 100.534 10.0541 100.534 11.4694C100.534 12.8847 99.1231 13.38 97.7979 13.38Z" fill="white"/>
<path d="M94.7631 23.5592H107.005V8.37207H104.734V15.3669H92.1929V16.5916H96.5692V18.9214H98.8402V16.5916H104.729V17.9579H100.972V19.1827H104.729V22.3344H95.9814V19.248H93.7104V22.3072C93.7104 22.9985 94.1807 23.5592 94.7631 23.5592Z" fill="white"/>
<path d="M136.512 10.7779L136.352 10.5982H138.014V9.36803H134.129V7.87109H131.794V9.36803H127.989V10.5982H129.71L129.55 10.7779C128.94 11.442 128.614 12.253 128.614 13.1294C128.614 15.3068 130.469 16.8854 133.023 16.8854C135.577 16.8854 137.437 15.2741 137.437 13.1294C137.437 12.253 137.116 11.442 136.507 10.7779H136.512ZM133.028 15.6987C131.789 15.6987 130.848 14.5937 130.848 13.1294C130.848 11.6652 131.789 10.5547 133.028 10.5547C134.444 10.5547 135.208 11.8774 135.208 13.1294C135.208 14.6155 134.295 15.6987 133.028 15.6987Z" fill="white"/>
<path d="M143.779 11.5728H142.107V8.37207H139.836V17.9797H129.175V19.2045H139.836V23.6898H142.107V12.803H143.779V11.5728Z" fill="white"/>
<path d="M159.388 9.17212H146.601V10.4023H157.117V21.6593H155.043V15.5736H152.778V21.6593H150.603V15.5736H148.327V21.6593H145.756V22.8895H160.333V21.6593H159.388V9.17212Z" fill="white"/>
<path d="M124.842 23.6898V8.37207H122.656V12.9718H121.55V8.37207H119.365V17.9851H113.268V10.2065H117.468V8.97629H110.997V17.9579C110.997 18.6492 111.467 19.2099 112.044 19.2099H119.359V23.6953H121.545V14.2891H122.651V23.6953H124.836L124.842 23.6898Z" fill="white"/>
</g>
<defs>
<clipPath id="clip0_459_5865">
<rect width="157.714" height="24" fill="white" transform="translate(2.61914)"/>
</clipPath>
</defs>
</svg>
